<svg width="223" height="80" viewBox="0 0 223 80" fill="none" xmlns="http://www.w3.org/2000/svg">
<path d="M89.1347 37.5246H85.3078C85.2806 37.1971 85.2083 36.9002 85.0907 36.6335C84.9774 36.367 84.8192 36.1376 84.6155 35.9458C84.4165 35.7494 84.1747 35.5998 83.8897 35.4969C83.6047 35.3892 83.2813 35.3354 82.9194 35.3354C82.286 35.3354 81.7499 35.4945 81.3111 35.8125C80.877 36.1306 80.5468 36.5867 80.3205 37.1807C80.0989 37.7749 79.988 38.4882 79.988 39.321C79.988 40.2002 80.101 40.9371 80.3273 41.5311C80.558 42.1205 80.8905 42.5651 81.3248 42.8643C81.7589 43.159 82.2814 43.3065 82.8921 43.3065C83.2405 43.3065 83.5525 43.2619 83.8286 43.173C84.1045 43.0795 84.3443 42.9463 84.5477 42.7733C84.7514 42.6 84.9164 42.3918 85.0431 42.1487C85.1743 41.9007 85.2624 41.6224 85.3078 41.3137L89.1347 41.3417C89.0895 41.9499 88.9243 42.5696 88.6393 43.2012C88.3543 43.828 87.9496 44.4079 87.4248 44.9412C86.9045 45.4699 86.26 45.8957 85.491 46.2183C84.722 46.5412 83.8286 46.7024 82.8108 46.7024C81.535 46.7024 80.3906 46.4195 79.3772 45.8535C78.3685 45.2875 77.5702 44.4547 76.982 43.3554C76.3986 42.2561 76.1068 40.9113 76.1068 39.321C76.1068 37.7212 76.4053 36.374 77.0025 35.2793C77.5995 34.18 78.4049 33.3496 79.418 32.7884C80.4314 32.2224 81.5623 31.9393 82.8108 31.9393C83.6883 31.9393 84.4958 32.0634 85.233 32.3113C85.9705 32.559 86.6174 32.9217 87.1736 33.3988C87.7301 33.8713 88.1779 34.4537 88.5172 35.146C88.8565 35.8383 89.0622 36.6311 89.1347 37.5246ZM89.9452 46.506V35.7284H93.6907V46.506H89.9452ZM91.8179 34.6058C91.3114 34.6058 90.877 34.4325 90.5151 34.0865C90.1532 33.7402 89.9724 33.3241 89.9724 32.8376C89.9724 32.3511 90.1532 31.9347 90.5151 31.5884C90.877 31.2424 91.3114 31.0694 91.8179 31.0694C92.3292 31.0694 92.7633 31.2424 93.1208 31.5884C93.4826 31.9347 93.6637 32.3511 93.6637 32.8376C93.6637 33.3241 93.4826 33.7402 93.1208 34.0865C92.7633 34.4325 92.3292 34.6058 91.8179 34.6058ZM100.859 35.7284V38.5349H93.9923V35.7284H100.859ZM95.3223 33.1463H99.0679V43.0398C99.0679 43.1894 99.0926 43.3157 99.1425 43.4188C99.1923 43.5169 99.2692 43.5918 99.3731 43.6431C99.4773 43.6899 99.6106 43.7135 99.7735 43.7135C99.8865 43.7135 100.018 43.6993 100.167 43.6713C100.321 43.6431 100.434 43.6198 100.506 43.6012L101.049 46.3236C100.882 46.3749 100.642 46.4383 100.33 46.513C100.022 46.588 99.6558 46.6371 99.2308 46.6605C98.3712 46.7072 97.6497 46.6159 97.066 46.3867C96.4825 46.1528 96.0438 45.7855 95.7497 45.2851C95.4556 44.7846 95.3132 44.1578 95.3223 43.4046V33.1463ZM101.432 46.506V35.7284H105.178V46.506H101.432ZM103.305 34.6058C102.798 34.6058 102.364 34.4325 102.002 34.0865C101.64 33.7402 101.459 33.3241 101.459 32.8376C101.459 32.3511 101.64 31.9347 102.002 31.5884C102.364 31.2424 102.798 31.0694 103.305 31.0694C103.816 31.0694 104.25 31.2424 104.608 31.5884C104.97 31.9347 105.151 32.3511 105.151 32.8376C105.151 33.3241 104.97 33.7402 104.608 34.0865C104.25 34.4325 103.816 34.6058 103.305 34.6058ZM106.239 46.506V44.373L110.799 38.7316V38.6754H106.402V35.7284H115.223V38.086L111.071 43.5029V43.559H115.386V46.506H106.239ZM121.197 46.7024C120.084 46.7024 119.126 46.4826 118.32 46.0429C117.52 45.5986 116.902 44.9624 116.468 44.1345C116.038 43.3017 115.823 42.3053 115.823 41.1453C115.823 40.032 116.04 39.059 116.475 38.2263C116.909 37.3937 117.522 36.7458 118.313 36.2826C119.105 35.8195 120.039 35.588 121.116 35.588C121.903 35.588 122.615 35.7142 123.253 35.967C123.891 36.2195 124.436 36.5867 124.889 37.0687C125.341 37.5458 125.689 38.1258 125.933 38.8087C126.178 39.4916 126.3 40.2612 126.3 41.1171V42.0154H116.99V39.8822H122.853C122.848 39.5735 122.772 39.3022 122.622 39.0684C122.478 38.8296 122.281 38.6451 122.032 38.514C121.788 38.3783 121.509 38.3106 121.197 38.3106C120.894 38.3106 120.616 38.3783 120.363 38.514C120.109 38.6451 119.906 38.8275 119.752 39.0612C119.603 39.2952 119.524 39.5689 119.514 39.8822V42.1836C119.514 42.5299 119.585 42.8386 119.725 43.1099C119.865 43.3812 120.066 43.594 120.329 43.7484C120.591 43.9029 120.908 43.98 121.279 43.98C121.537 43.98 121.772 43.9426 121.984 43.8677C122.202 43.793 122.387 43.6853 122.541 43.5451C122.695 43.4 122.808 43.227 122.88 43.0258H126.3C126.182 43.7742 125.904 44.4243 125.465 44.9764C125.027 45.5236 124.445 45.9494 123.721 46.2535C123.002 46.5528 122.161 46.7024 121.197 46.7024ZM130.619 40.4436V46.506H126.873V35.7284H130.428V37.7773H130.537C130.763 37.0942 131.161 36.5588 131.731 36.1704C132.306 35.7822 132.975 35.588 133.74 35.588C134.477 35.588 135.117 35.7634 135.66 36.1142C136.207 36.4605 136.63 36.9376 136.929 37.5458C137.232 38.1537 137.381 38.8484 137.377 39.6296V46.506H133.631V40.4436C133.636 39.9104 133.504 39.4916 133.238 39.1877C132.975 38.8836 132.609 38.7316 132.138 38.7316C131.831 38.7316 131.562 38.8017 131.331 38.9419C131.105 39.0776 130.931 39.2742 130.808 39.5313C130.686 39.7841 130.623 40.0882 130.619 40.4436ZM151.19 37.5246H147.363C147.336 37.1971 147.263 36.9002 147.146 36.6335C147.032 36.367 146.874 36.1376 146.671 35.9458C146.472 35.7494 146.229 35.5998 145.944 35.4969C145.66 35.3892 145.336 35.3354 144.974 35.3354C144.341 35.3354 143.805 35.4945 143.366 35.8125C142.932 36.1306 142.602 36.5867 142.376 37.1807C142.154 37.7749 142.043 38.4882 142.043 39.321C142.043 40.2002 142.156 40.9371 142.382 41.5311C142.613 42.1205 142.946 42.5651 143.38 42.8643C143.814 43.159 144.336 43.3065 144.947 43.3065C145.296 43.3065 145.608 43.2619 145.883 43.173C146.16 43.0795 146.399 42.9463 146.603 42.7733C146.806 42.6 146.971 42.3918 147.098 42.1487C147.229 41.9007 147.317 41.6224 147.363 41.3137L151.19 41.3417C151.145 41.9499 150.979 42.5696 150.694 43.2012C150.409 43.828 150.005 44.4079 149.48 44.9412C148.96 45.4699 148.315 45.8957 147.546 46.2183C146.777 46.5412 145.883 46.7024 144.866 46.7024C143.59 46.7024 142.446 46.4195 141.432 45.8535C140.424 45.2875 139.625 44.4547 139.037 43.3554C138.454 42.2561 138.162 40.9113 138.162 39.321C138.162 37.7212 138.46 36.374 139.057 35.2793C139.655 34.18 140.46 33.3496 141.473 32.7884C142.486 32.2224 143.617 31.9393 144.866 31.9393C145.743 31.9393 146.551 32.0634 147.288 32.3113C148.025 32.559 148.672 32.9217 149.229 33.3988C149.785 33.8713 150.233 34.4537 150.572 35.146C150.912 35.8383 151.117 36.6311 151.19 37.5246ZM157.021 46.7024C155.89 46.7024 154.923 46.4708 154.117 46.008C153.312 45.54 152.695 44.8899 152.265 44.0571C151.835 43.2198 151.62 42.2492 151.62 41.1453C151.62 40.0412 151.835 39.073 152.265 38.2402C152.695 37.4031 153.312 36.7528 154.117 36.2896C154.923 35.8219 155.89 35.588 157.021 35.588C158.152 35.588 159.12 35.8219 159.925 36.2896C160.731 36.7528 161.348 37.4031 161.778 38.2402C162.208 39.073 162.422 40.0412 162.422 41.1453C162.422 42.2492 162.208 43.2198 161.778 44.0571C161.348 44.8899 160.731 45.54 159.925 46.008C159.12 46.4708 158.152 46.7024 157.021 46.7024ZM157.049 43.8398C157.365 43.8398 157.639 43.7296 157.87 43.5099C158.1 43.2901 158.279 42.9766 158.406 42.5696C158.532 42.1626 158.596 41.6786 158.596 41.1171C158.596 40.5511 158.532 40.067 158.406 39.6648C158.279 39.2578 158.1 38.9443 157.87 38.7246C157.639 38.5046 157.365 38.3947 157.049 38.3947C156.714 38.3947 156.427 38.5046 156.187 38.7246C155.947 38.9443 155.764 39.2578 155.637 39.6648C155.51 40.067 155.447 40.5511 155.447 41.1171C155.447 41.6786 155.51 42.1626 155.637 42.5696C155.764 42.9766 155.947 43.2901 156.187 43.5099C156.427 43.7296 156.714 43.8398 157.049 43.8398ZM166.733 40.4436V46.506H162.987V35.7284H166.543V37.7773H166.651C166.877 37.0942 167.275 36.5588 167.845 36.1704C168.42 35.7822 169.089 35.588 169.854 35.588C170.591 35.588 171.231 35.7634 171.774 36.1142C172.321 36.4605 172.745 36.9376 173.043 37.5458C173.346 38.1537 173.495 38.8484 173.491 39.6296V46.506H169.745V40.4436C169.75 39.9104 169.619 39.4916 169.352 39.1877C169.089 38.8836 168.723 38.7316 168.253 38.7316C167.945 38.7316 167.676 38.8017 167.445 38.9419C167.219 39.0776 167.045 39.2742 166.923 39.5313C166.8 39.7841 166.737 40.0882 166.733 40.4436ZM178.13 40.4436V46.506H174.385V35.7284H177.94V37.7773H178.049C178.275 37.0942 178.673 36.5588 179.243 36.1704C179.817 35.7822 180.487 35.588 181.251 35.588C181.989 35.588 182.629 35.7634 183.172 36.1142C183.719 36.4605 184.142 36.9376 184.441 37.5458C184.743 38.1537 184.893 38.8484 184.888 39.6296V46.506H181.143V40.4436C181.147 39.9104 181.016 39.4916 180.749 39.1877C180.487 38.8836 180.12 38.7316 179.65 38.7316C179.342 38.7316 179.073 38.8017 178.842 38.9419C178.616 39.0776 178.442 39.2742 178.32 39.5313C178.198 39.7841 178.135 40.0882 178.13 40.4436ZM190.776 46.7024C189.663 46.7024 188.704 46.4826 187.899 46.0429C187.098 45.5986 186.481 44.9624 186.046 44.1345C185.617 43.3017 185.402 42.3053 185.402 41.1453C185.402 40.032 185.619 39.059 186.053 38.2263C186.488 37.3937 187.1 36.7458 187.892 36.2826C188.684 35.8195 189.618 35.588 190.695 35.588C191.482 35.588 192.194 35.7142 192.832 35.967C193.47 36.2195 194.015 36.5867 194.467 37.0687C194.919 37.5458 195.268 38.1258 195.512 38.8087C195.756 39.4916 195.879 40.2612 195.879 41.1171V42.0154H186.569V39.8822H192.431C192.427 39.5735 192.35 39.3022 192.201 39.0684C192.056 38.8296 191.859 38.6451 191.611 38.514C191.366 38.3783 191.088 38.3106 190.776 38.3106C190.473 38.3106 190.195 38.3783 189.941 38.514C189.688 38.6451 189.484 38.8275 189.331 39.0612C189.181 39.2952 189.102 39.5689 189.093 39.8822V42.1836C189.093 42.5299 189.163 42.8386 189.303 43.1099C189.444 43.3812 189.645 43.594 189.907 43.7484C190.17 43.9029 190.486 43.98 190.857 43.98C191.115 43.98 191.35 43.9426 191.563 43.8677C191.78 43.793 191.966 43.6853 192.119 43.5451C192.273 43.4 192.386 43.227 192.459 43.0258H195.879C195.761 43.7742 195.483 44.4243 195.044 44.9764C194.605 45.5236 194.024 45.9494 193.3 46.2535C192.581 46.5528 191.739 46.7024 190.776 46.7024ZM201.473 46.7024C200.342 46.7024 199.374 46.4708 198.569 46.008C197.763 45.54 197.146 44.8899 196.716 44.0571C196.287 43.2198 196.071 42.2492 196.071 41.1453C196.071 40.0412 196.287 39.073 196.716 38.2402C197.146 37.4031 197.763 36.7528 198.569 36.2896C199.374 35.8219 200.342 35.588 201.473 35.588C202.495 35.588 203.379 35.7798 204.126 36.1634C204.877 36.5424 205.458 37.0802 205.87 37.7773C206.281 38.4696 206.489 39.2836 206.494 40.219H203.02C202.97 39.653 202.812 39.2226 202.545 38.9279C202.282 38.6287 201.943 38.479 201.527 38.479C201.201 38.479 200.916 38.5771 200.672 38.7737C200.428 38.9653 200.238 39.2578 200.102 39.6506C199.966 40.039 199.899 40.5277 199.899 41.1171C199.899 41.7065 199.966 42.1978 200.102 42.5906C200.238 42.979 200.428 43.2713 200.672 43.4677C200.916 43.6595 201.201 43.7554 201.527 43.7554C201.803 43.7554 202.047 43.6899 202.26 43.559C202.473 43.4234 202.644 43.227 202.775 42.9696C202.911 42.7077 202.993 42.3896 203.02 42.0154H206.494C206.48 42.9648 206.27 43.793 205.863 44.4993C205.456 45.201 204.879 45.7436 204.133 46.1272C203.391 46.5106 202.504 46.7024 201.473 46.7024ZM213.299 35.7284V38.5349H206.432V35.7284H213.299ZM207.763 33.1463H211.508V43.0398C211.508 43.1894 211.533 43.3157 211.583 43.4188C211.632 43.5169 211.709 43.5918 211.813 43.6431C211.917 43.6899 212.051 43.7135 212.214 43.7135C212.327 43.7135 212.458 43.6993 212.607 43.6713C212.761 43.6431 212.874 43.6198 212.947 43.6012L213.489 46.3236C213.322 46.3749 213.082 46.4383 212.77 46.513C212.463 46.588 212.096 46.6371 211.671 46.6605C210.811 46.7072 210.09 46.6159 209.506 46.3867C208.923 46.1528 208.484 45.7855 208.19 45.2851C207.896 44.7846 207.753 44.1578 207.763 43.4046V33.1463ZM215.908 46.7306C215.383 46.7306 214.933 46.5412 214.558 46.1622C214.187 45.7786 214.004 45.3133 214.008 44.7658C214.004 44.2325 214.187 43.7766 214.558 43.3976C214.933 43.0188 215.383 42.8292 215.908 42.8292C216.405 42.8292 216.844 43.0188 217.224 43.3976C217.609 43.7766 217.803 44.2325 217.808 44.7658C217.803 45.1308 217.711 45.4629 217.53 45.7622C217.353 46.0569 217.122 46.2933 216.838 46.4708C216.553 46.6441 216.243 46.7306 215.908 46.7306Z" fill="url(#paint0_linear_24_2)"/>
<path fill-rule="evenodd" clip-rule="evenodd" d="M60.3186 50.5007L34.5279 27.3C34.1903 26.9959 33.8342 26.7342 33.4698 26.5149C33.0732 26.2776 32.6589 26.0793 32.239 25.9224H32.2325C31.8098 25.7641 31.3631 25.6451 30.9045 25.5607C30.4522 25.4783 29.9936 25.4393 29.5348 25.4393C29.0762 25.4393 28.6183 25.4783 28.1625 25.5607C27.7037 25.6424 27.2608 25.7641 26.8346 25.9224H26.828C26.4081 26.0793 25.9994 26.2742 25.6119 26.5075C25.2356 26.7342 24.8739 26.9993 24.5363 27.3024L24.345 27.4749C24.0952 27.7176 23.8687 27.98 23.6662 28.2516C23.4017 28.6092 23.1815 28.9817 23.0076 29.36C22.8347 29.7376 22.6997 30.1424 22.6053 30.56C22.5147 30.9667 22.4703 31.3793 22.4703 31.7916C22.4703 32.2017 22.5147 32.6142 22.6053 33.0207C22.6997 33.4393 22.8319 33.8434 23.0049 34.2183C23.175 34.5916 23.3933 34.9593 23.6541 35.3132C23.9074 35.6542 24.1979 35.9766 24.5244 36.2725L24.7684 36.4925L35.2482 45.9166L40.9931 51.0851C47.2236 56.6901 54.447 55.5684 60.9715 51.0851L60.3186 50.5007Z" fill="url(#paint1_linear_24_2)"/>
<mask id="mask0_24_2" style="mask-type:luminance" maskUnits="userSpaceOnUse" x="54" y="34" width="16" height="14">
<path d="M54.5192 34.3467H69.5935V48H54.5192V34.3467Z" fill="white"/>
</mask>
<g mask="url(#mask0_24_2)">
<path fill-rule="evenodd" clip-rule="evenodd" d="M64.5856 34.9559C63.5922 34.5858 62.5315 34.4007 61.4764 34.4007C60.4073 34.4007 59.3457 34.5858 58.3588 34.9533C57.4119 35.3051 56.5185 35.8342 55.7343 36.54H55.7287L54.8169 37.3593L54.5469 37.6024L54.8207 37.8484L65.761 47.6933L66.0348 47.9393L66.3048 47.6959L67.2157 46.8766V46.8708C67.6041 46.5224 67.939 46.1549 68.2209 45.7742C68.5243 45.3641 68.7767 44.9383 68.9764 44.5024C69.1763 44.0658 69.3315 43.6034 69.438 43.1224C69.5405 42.6542 69.5934 42.1783 69.5934 41.7024C69.5934 41.2301 69.5405 40.7508 69.438 40.2834C69.3315 39.8017 69.1763 39.3393 68.9764 38.9034C68.7767 38.4668 68.5234 38.0417 68.2209 37.6316C67.939 37.2508 67.6041 36.8834 67.2157 36.5342C66.8282 36.1858 66.4195 35.8841 65.9968 35.6301C65.5435 35.3634 65.0675 35.1359 64.5856 34.9559Z" fill="url(#paint2_linear_24_2)"/>
</g>
<mask id="mask1_24_2" style="mask-type:luminance" maskUnits="userSpaceOnUse" x="10" y="39" width="23" height="15">
<path d="M10.8207 39.04H32.7384V53.76H10.8207V39.04Z" fill="white"/>
</mask>
<g mask="url(#mask1_24_2)">
<path fill-rule="evenodd" clip-rule="evenodd" d="M20.2305 39.6617C19.4047 39.3549 18.515 39.1993 17.6179 39.1993C16.7274 39.1993 15.8405 39.3525 15.0119 39.6617H15.0054C14.2156 39.9549 13.4684 40.3993 12.8109 40.9916H12.8044C12.4927 41.2716 12.2134 41.5807 11.973 41.9092C11.7168 42.2525 11.506 42.6125 11.3376 42.9742V42.98C11.1675 43.3475 11.038 43.7333 10.9529 44.1301C10.8651 44.5207 10.8207 44.92 10.8207 45.3166C10.8207 45.7133 10.8651 46.1125 10.9529 46.5034C11.0445 46.9084 11.174 47.2966 11.3376 47.6593C11.506 48.0241 11.7168 48.3807 11.973 48.7241C12.2079 49.0417 12.4872 49.3484 12.8136 49.6417L14.6558 51.2993C15.0526 51.6559 15.4909 51.9624 15.9487 52.2193C16.4814 52.5183 17.0427 52.7607 17.6068 52.9516C18.2292 53.1634 18.8673 53.3166 19.4814 53.4193C23.3258 54.0641 27.8508 53.8217 32.583 50.12L31.93 49.5333L30.86 48.5708L22.426 40.9942C21.7675 40.4024 21.0184 39.9583 20.2305 39.6617Z" fill="url(#paint3_linear_24_2)"/>
</g>
<mask id="mask2_24_2" style="mask-type:luminance" maskUnits="userSpaceOnUse" x="41" y="23" width="15" height="13">
<path d="M41.9716 23.2575H55.4662V35.4133H41.9716V23.2575Z" fill="white"/>
</mask>
<g mask="url(#mask2_24_2)">
<path fill-rule="evenodd" clip-rule="evenodd" d="M51.0679 23.7416C50.2151 23.4249 49.3014 23.2657 48.3812 23.2657C47.461 23.2657 46.5446 23.4249 45.6957 23.7416C44.8782 24.0457 44.1088 24.5007 43.4356 25.1084L42.2628 26.1633L42.0482 26.3566L42.26 26.544H42.2656L51.7374 35.065L51.9492 35.2549L52.161 35.065L53.3336 34.0098H53.3392C53.6563 33.724 53.9448 33.404 54.2002 33.0607C54.4647 32.704 54.6819 32.339 54.8494 31.9715C55.0232 31.5958 55.1554 31.1966 55.246 30.7816C55.3348 30.3775 55.3821 29.9674 55.3821 29.5575C55.3821 29.1484 55.3376 28.7383 55.246 28.3342C55.1554 27.9216 55.0232 27.5223 54.8494 27.1467C54.6765 26.7691 54.4591 26.4016 54.203 26.0575L54.1974 26.0525C53.9532 25.725 53.6657 25.4074 53.3299 25.1057C52.6548 24.5007 51.8817 24.0457 51.0679 23.7416Z" fill="url(#paint4_linear_24_2)"/>
</g>
<defs>
<linearGradient id="paint0_linear_24_2" x1="108.69" y1="47.4699" x2="187.679" y2="27.7983" gradientUnits="userSpaceOnUse">
<stop stop-color="#37C0C0"/>
<stop offset="1" stop-color="#3299CC"/>
</linearGradient>
<linearGradient id="paint1_linear_24_2" x1="41.7208" y1="25.4393" x2="41.7208" y2="54.8798" gradientUnits="userSpaceOnUse">
<stop stop-color="#3299CC"/>
<stop offset="1" stop-color="#37C0C0"/>
</linearGradient>
<linearGradient id="paint2_linear_24_2" x1="62.0702" y1="34.4007" x2="62.0702" y2="47.9393" gradientUnits="userSpaceOnUse">
<stop stop-color="#3299CC"/>
<stop offset="1" stop-color="#37C0C0"/>
</linearGradient>
<linearGradient id="paint3_linear_24_2" x1="21.7018" y1="39.1993" x2="21.7018" y2="53.6971" gradientUnits="userSpaceOnUse">
<stop stop-color="#3299CC"/>
<stop offset="1" stop-color="#37C0C0"/>
</linearGradient>
<linearGradient id="paint4_linear_24_2" x1="48.7151" y1="23.2657" x2="48.7151" y2="35.2549" gradientUnits="userSpaceOnUse">
<stop stop-color="#3299CC"/>
<stop offset="1" stop-color="#37C0C0"/>
</linearGradient>
</defs>
</svg>
